<svg width="24" height="24" viewBox="0 0 24 24" fill="none" xmlns="http://www.w3.org/2000/svg">
<path d="M22.9997 9.71005C23.0492 8.27871 22.7361 6.85807 22.0897 5.58005C21.6511 5.05565 21.0424 4.70176 20.3697 4.58005C17.5873 4.32689 14.7932 4.22341 11.9997 4.27005C9.21636 4.22305 6.43248 4.32318 3.65971 4.57005C3.11153 4.66977 2.60423 4.9269 2.19971 5.31005C1.29971 6.14005 1.19971 7.56005 1.09971 8.76005C0.953743 10.9176 0.953743 13.0825 1.09971 15.2401C1.12901 15.9154 1.22957 16.5858 1.39971 17.2401C1.52028 17.7451 1.76423 18.2124 2.10971 18.6001C2.51698 19.0035 3.03609 19.2753 3.59971 19.3801C5.75557 19.6468 7.92792 19.7571 10.0997 19.7101C13.5997 19.7601 16.6697 19.7101 20.2997 19.4301C20.8768 19.3305 21.4102 19.0586 21.8297 18.6501C22.1094 18.3697 22.3184 18.027 22.4397 17.6501C22.797 16.5526 22.9726 15.4041 22.9597 14.2501C22.9997 13.6901 22.9997 10.3101 22.9997 9.71005ZM9.73971 14.8501V8.66005L15.6597 11.7701C13.9997 12.6901 11.8097 13.7301 9.73971 14.8501Z" fill="black"/>
</svg>
